<?xml version="1.0" encoding="UTF-8" standalone="no"?>
<!-- Created with Inkscape (http://www.inkscape.org/) -->

<svg
   width="512"
   height="511.99997"
   viewBox="0 0 135.46666 135.46661"
   version="1.1"
   id="svg1"
   xml:space="preserve"
   inkscape:export-filename="memorybox_XL.png"
   inkscape:export-xdpi="192"
   inkscape:export-ydpi="192"
   inkscape:version="1.3.2 (091e20e, 2023-11-25, custom)"
   sodipodi:docname="memorybox_orig.svg"
   xmlns:inkscape="http://www.inkscape.org/namespaces/inkscape"
   xmlns:sodipodi="http://sodipodi.sourceforge.net/DTD/sodipodi-0.dtd"
   xmlns:xlink="http://www.w3.org/1999/xlink"
   xmlns="http://www.w3.org/2000/svg"
   xmlns:svg="http://www.w3.org/2000/svg"><sodipodi:namedview
     id="namedview1"
     pagecolor="#ffffff"
     bordercolor="#000000"
     borderopacity="0.25"
     inkscape:showpageshadow="2"
     inkscape:pageopacity="0.0"
     inkscape:pagecheckerboard="0"
     inkscape:deskcolor="#d1d1d1"
     inkscape:document-units="mm"
     inkscape:zoom="1"
     inkscape:cx="227.5"
     inkscape:cy="343.5"
     inkscape:window-width="1920"
     inkscape:window-height="1094"
     inkscape:window-x="-11"
     inkscape:window-y="-11"
     inkscape:window-maximized="1"
     inkscape:current-layer="g16" /><defs
     id="defs1"><linearGradient
       id="linearGradient1"
       inkscape:collect="always"><stop
         style="stop-color:#f5c7b1;stop-opacity:1;"
         offset="0"
         id="stop1" /><stop
         style="stop-color:#67929a;stop-opacity:1;"
         offset="1"
         id="stop2" /></linearGradient><linearGradient
       inkscape:collect="always"
       xlink:href="#linearGradient1"
       id="linearGradient2"
       x1="32.473213"
       y1="122.7953"
       x2="172.47321"
       y2="122.7953"
       gradientUnits="userSpaceOnUse"
       gradientTransform="translate(180.72154,-226.7671)" /><linearGradient
       inkscape:collect="always"
       xlink:href="#linearGradient69"
       id="linearGradient70"
       x1="118.86358"
       y1="90.063339"
       x2="161.86865"
       y2="90.063339"
       gradientUnits="userSpaceOnUse"
       gradientTransform="matrix(0.67214193,0,0,1.9863154,25.571879,-305.64425)" /><linearGradient
       id="linearGradient69"
       inkscape:collect="always"><stop
         style="stop-color:#0072c1;stop-opacity:1;"
         offset="0"
         id="stop69" /><stop
         style="stop-color:#688b96;stop-opacity:1;"
         offset="0.68768477"
         id="stop71" /><stop
         style="stop-color:#ff8e00;stop-opacity:1;"
         offset="1"
         id="stop70" /></linearGradient></defs><g
     inkscape:label="Calque 1"
     inkscape:groupmode="layer"
     id="layer1"
     transform="translate(-40.151735,-115.77003)"><g
       id="g16"
       transform="matrix(0.94684224,0,0,0.94684224,8.2857916,-86.09177)"><rect
         style="fill:none;fill-opacity:1;stroke:#3d3d3d;stroke-width:7.83217;stroke-linecap:round;stroke-linejoin:round;stroke-miterlimit:0.2;stroke-dasharray:none;stroke-opacity:1"
         id="rect1-2"
         width="132.16783"
         height="132.16783"
         x="220.11128"
         y="-172.46262"
         rx="29.370632"
         ry="29.37063"
         transform="rotate(90)" /><rect
         style="fill:url(#linearGradient2);fill-opacity:1;stroke:#fdfeeb;stroke-width:7.83217;stroke-linecap:round;stroke-linejoin:round;stroke-miterlimit:0.2;stroke-dasharray:none;stroke-opacity:1"
         id="rect1"
         width="132.16783"
         height="132.16783"
         x="217.11084"
         y="-170.05573"
         rx="29.370632"
         ry="29.37063"
         transform="rotate(90)" /><g
         id="g4"
         transform="matrix(1.1441878,0,0,1.1422675,-10.524217,3.6984777)"><path
           style="fill:#dcddcd;fill-opacity:1;stroke:#423b51;stroke-width:2.5;stroke-linecap:round;stroke-linejoin:round;stroke-miterlimit:0.2;stroke-dasharray:none;stroke-opacity:1"
           d="m 100.0598,254.49008 34.081,-17 -9e-5,41.26033 -34.08091,16.99967 z"
           id="path3"
           sodipodi:nodetypes="ccccc" /><path
           style="fill:#fdfeeb;fill-opacity:1;stroke:#423b51;stroke-width:2.5;stroke-linecap:round;stroke-linejoin:round;stroke-miterlimit:0.2;stroke-dasharray:none;stroke-opacity:1"
           d="m 100.079,254.49 -34.081,-17 3.5e-4,41.26008 34.08136,17.00033 z"
           id="path3-9"
           sodipodi:nodetypes="ccccc" /><path
           style="fill:#d5c7b9;fill-opacity:1;stroke:#423b51;stroke-width:2.5;stroke-linecap:round;stroke-linejoin:round;stroke-miterlimit:0.2;stroke-dasharray:none;stroke-opacity:1"
           d="m 65.998,237.49 34.081,17 33.97088,-17.017 L 100.079,220.49 Z"
           id="path4"
           sodipodi:nodetypes="ccccc" /><g
           id="g71"
           transform="translate(-25.516156,118.41656)"><rect
             style="fill:none;stroke:#494949;stroke-width:3.6965;stroke-linecap:round;stroke-linejoin:round;stroke-miterlimit:0.2;stroke-dasharray:none;stroke-opacity:1"
             id="rect69-5"
             width="28.771088"
             height="45.129719"
             x="105.47911"
             y="-149.36775"
             transform="rotate(90)" /><rect
             style="fill:url(#linearGradient70);stroke:#ffffff;stroke-width:2.31092;stroke-linecap:round;stroke-linejoin:round;stroke-miterlimit:0.2;stroke-dasharray:none"
             id="rect69"
             width="28.771088"
             height="45.129719"
             x="105.53228"
             y="-149.31491"
             transform="rotate(90)" /><ellipse
             style="fill:#1a1a1a;stroke:#1a1a1a;stroke-width:0;stroke-linecap:round;stroke-linejoin:round;stroke-miterlimit:0.2;stroke-dasharray:none"
             id="path67"
             cx="120.7585"
             cy="116.74836"
             rx="5.2358446"
             ry="5.1790433" /><ellipse
             style="fill:#1a1a1a;stroke:#1a1a1a;stroke-width:0;stroke-linecap:round;stroke-linejoin:round;stroke-miterlimit:0.2;stroke-dasharray:none"
             id="path67-1"
             cx="132.00636"
             cy="114.6726"
             rx="5.3721666"
             ry="5.360806" /><path
             style="fill:#1a1a1a;stroke:#1a1a1a;stroke-width:0.2;stroke-linecap:round;stroke-linejoin:round;stroke-miterlimit:0.2;stroke-dasharray:none"
             d="m 126.04096,124.74591 c 1.20607,-1.2534 1.98898,-2.12057 2.84288,-2.75484 0.85391,-0.63428 1.77881,-1.03567 3.26889,-1.35754 1.42002,-0.0663 2.48503,0.22815 3.45491,0.65747 0.96987,0.42932 1.8446,0.99354 2.88406,1.46688 0.40426,0.21252 0.76233,0.35877 1.12442,0.46988 0.36208,0.11111 0.72818,0.18707 1.14851,0.25902 0.11787,0.0414 0.22169,0.0406 0.2994,-0.0143 0.0777,-0.055 0.1293,-0.16418 0.14275,-0.33969 0.0369,-0.47145 -0.0114,-0.95425 -0.11291,-1.47824 -0.10153,-0.52399 -0.2563,-1.08915 -0.43238,-1.72532 -0.0161,-0.30767 0.0232,-0.63948 0.10081,-0.93154 0.0776,-0.29205 0.1936,-0.54434 0.33087,-0.69297 0.12875,-0.12307 0.2717,-0.23761 0.42033,-0.33512 0.14863,-0.0975 0.30294,-0.17797 0.45441,-0.23288 0.28238,-0.0843 0.50525,-0.10628 0.70797,-0.0721 0.20272,0.0342 0.38529,0.1246 0.58708,0.26521 0.54414,0.51112 0.89738,1.16998 1.14529,1.87858 0.24791,0.7086 0.39048,1.46693 0.5133,2.177 0.0869,0.64874 0.12565,1.20108 0.11619,1.71126 -0.009,0.51017 -0.0671,0.97817 -0.17299,1.45822 -0.19961,0.68436 -0.41169,1.10507 -0.65812,1.41414 -0.24642,0.30906 -0.52719,0.50649 -0.86414,0.74429 -0.34792,0.19772 -0.5959,0.33722 -0.87858,0.43564 -0.28267,0.0984 -0.60005,0.15576 -1.08673,0.18917 -0.6978,-0.002 -1.21888,-0.15661 -1.69578,-0.34936 -0.47689,-0.19276 -0.90961,-0.42367 -1.43069,-0.57827 l -0.005,0.33885 -0.004,0.33886 -0.0227,2.47651 -0.0227,2.47652 -4.09638,0.0307 -4.09638,0.0307 c -0.41945,-1.77596 -0.84694,-3.11815 -1.45116,-4.33984 -0.60421,-1.22169 -1.38514,-2.32289 -2.51149,-3.61687 h 3e-5 z"
             id="path68"
             sodipodi:nodetypes="cscscscscscscscscscscscscscccccccsccc" /><path
             style="fill:#1a1a1a;stroke:#1a1a1a;stroke-width:0.2;stroke-linecap:round;stroke-linejoin:round;stroke-miterlimit:0.2;stroke-dasharray:none"
             d="m 126.60505,126.95592 c -1.04541,-1.47832 -1.38651,-2.08844 -2.52156,-2.94763 -0.84813,-0.642 -1.71455,-1.20436 -3.20463,-1.52623 -1.42002,-0.0663 -2.48503,0.22815 -3.45491,0.65747 -0.96987,0.42932 -1.93548,0.87994 -2.97494,1.35328 -1.62241,0.26371 -2.33007,-0.0769 -2.72001,-0.69406 -0.50183,-0.79429 -0.22741,-1.42428 0.0838,-2.40866 0.18581,-0.58782 0.29038,-0.7597 0.36422,-1.42995 0.0502,-0.40991 0.0109,-0.62812 -0.0667,-0.92018 -0.0776,-0.29205 -0.12544,-0.57842 -0.26271,-0.72705 -0.12875,-0.12307 -0.1581,-0.13537 -0.30673,-0.23288 -0.14863,-0.0975 -0.30294,-0.17797 -0.45441,-0.23288 -0.28238,-0.0843 -0.50525,-0.10628 -0.70797,-0.0721 -0.20272,0.0342 -0.38529,0.1246 -0.58708,0.26521 -0.54414,0.51112 -0.89738,1.16998 -1.14529,1.87858 -0.24791,0.7086 -0.39048,1.46693 -0.5133,2.177 -0.32576,2.05196 -0.23898,2.63605 0.46576,4.10101 0.33594,0.58212 0.90774,1.03264 1.24885,1.23237 0.97533,0.57107 2.45413,0.79339 4.84263,0.54371 l 0.0959,1.22494 0.004,0.33886 0.0227,2.47651 0.008,0.99376 h 14.30196 c 0,0 -1.12111,-3.76102 -2.51707,-6.05107 h -3e-5 z"
             id="path68-3"
             sodipodi:nodetypes="cscscsscscscscsccsccccccccc" /></g><path
           style="fill:#f5f5e5;fill-opacity:1;stroke:#423b51;stroke-width:2.5;stroke-linecap:round;stroke-linejoin:round;stroke-miterlimit:0.2;stroke-dasharray:none;stroke-opacity:1"
           d="m 100.13056,254.70324 34.081,-17 7.13892,11.00577 c 2.00304,3.61767 1.64174,5.85351 -0.43072,7.91226 l -25.97618,13.02711 c -2.22145,0.9951 -4.17026,-0.28184 -5.84642,-1.9223 z"
           id="path3-5"
           sodipodi:nodetypes="ccccccc" /><path
           style="fill:#f5f5e5;fill-opacity:1;stroke:#423b51;stroke-width:2.5;stroke-linecap:round;stroke-linejoin:round;stroke-miterlimit:0.2;stroke-dasharray:none;stroke-opacity:1"
           d="m 100.00445,254.55273 -34.081004,-17 -7.13892,11.00577 c -2.00304,3.61767 -1.64174,5.85351 0.43072,7.91226 l 25.97618,13.02711 c 2.22145,0.9951 4.17026,-0.28184 5.84642,-1.9223 z"
           id="path3-5-9"
           sodipodi:nodetypes="ccccccc" /></g><g
         id="g15"
         transform="matrix(1.1136337,0,0,1.0440261,-10.801086,139.55812)"
         style="fill:#ffffff;stroke:#333333"><g
           id="path5"
           style="fill:#ffffff;fill-opacity:1;stroke:#333333;stroke-width:0.422457;stroke-dasharray:none;stroke-opacity:0.76"><path
             style="color:#000000;fill:#ffffff;fill-opacity:1;stroke:#333333;stroke-width:0.422457;stroke-linecap:round;stroke-linejoin:round;stroke-miterlimit:0.2;stroke-dasharray:none;stroke-opacity:0.76"
             d="m 54.9919,128.77555 -2.57051,-0.83542"
             id="path17" /><path
             style="color:#000000;fill:#ffffff;fill-opacity:1;stroke:#333333;stroke-width:0.422457;stroke-linecap:round;stroke-linejoin:round;stroke-miterlimit:0.2;stroke-dasharray:none;stroke-opacity:0.76"
             d="m 52.808594,126.75195 a 1.25,1.25 0 0 0 -1.576172,0.80274 1.25,1.25 0 0 0 0.802734,1.57422 l 2.570313,0.83593 a 1.25,1.25 0 0 0 1.576172,-0.80273 1.25,1.25 0 0 0 -0.802735,-1.57617 z"
             id="path18" /></g><g
           id="path6"
           style="fill:#ffffff;fill-opacity:1;stroke:#333333;stroke-width:0.422457;stroke-dasharray:none;stroke-opacity:0.76"><path
             style="color:#000000;fill:#ffffff;fill-opacity:1;stroke:#333333;stroke-width:0.422457;stroke-linecap:round;stroke-linejoin:round;stroke-miterlimit:0.2;stroke-dasharray:none;stroke-opacity:0.76"
             d="M 67.073298,117.33678 54.799111,111.23181"
             id="path19" /><path
             style="color:#000000;fill:#ffffff;fill-opacity:1;stroke:#333333;stroke-width:0.422457;stroke-linecap:round;stroke-linejoin:round;stroke-miterlimit:0.2;stroke-dasharray:none;stroke-opacity:0.76"
             d="m 55.355469,110.11328 a 1.25,1.25 0 0 0 -1.675782,0.5625 1.25,1.25 0 0 0 0.5625,1.67578 l 12.275391,6.10352 a 1.25,1.25 0 0 0 1.675781,-0.5625 1.25,1.25 0 0 0 -0.5625,-1.67578 z"
             id="path20" /></g><g
           id="path7"
           style="fill:#ffffff;fill-opacity:1;stroke:#333333;stroke-width:0.422457;stroke-dasharray:none;stroke-opacity:0.76"><path
             style="color:#000000;fill:#ffffff;fill-opacity:1;stroke:#333333;stroke-width:0.422457;stroke-linecap:round;stroke-linejoin:round;stroke-miterlimit:0.2;stroke-dasharray:none;stroke-opacity:0.76"
             d="M 77.291078,110.84624 59.747346,97.479583"
             id="path21" /><path
             style="color:#000000;fill:#ffffff;fill-opacity:1;stroke:#333333;stroke-width:0.422457;stroke-linecap:round;stroke-linejoin:round;stroke-miterlimit:0.2;stroke-dasharray:none;stroke-opacity:0.76"
             d="m 60.505859,96.484375 a 1.25,1.25 0 0 0 -1.751953,0.238281 1.25,1.25 0 0 0 0.236328,1.751953 l 17.542969,13.365231 a 1.25,1.25 0 0 0 1.751953,-0.23632 1.25,1.25 0 0 0 -0.236328,-1.75196 z"
             id="path22" /></g><g
           id="path8"
           style="fill:#ffffff;fill-opacity:1;stroke:#333333;stroke-width:0.422457;stroke-dasharray:none;stroke-opacity:0.76"><path
             style="color:#000000;fill:#ffffff;fill-opacity:1;stroke:#333333;stroke-width:0.422457;stroke-linecap:round;stroke-linejoin:round;stroke-miterlimit:0.2;stroke-dasharray:none;stroke-opacity:0.76"
             d="M 83.653092,103.52028 71.957268,87.904433"
             id="path23" /><path
             style="color:#000000;fill:#ffffff;fill-opacity:1;stroke:#333333;stroke-width:0.422457;stroke-linecap:round;stroke-linejoin:round;stroke-miterlimit:0.2;stroke-dasharray:none;stroke-opacity:0.76"
             d="m 71.207031,86.904297 a 1.25,1.25 0 0 0 -0.25,1.75 l 11.695313,15.615233 a 1.25,1.25 0 0 0 1.75,0.25195 1.25,1.25 0 0 0 0.251953,-1.75 L 72.957031,87.154297 a 1.25,1.25 0 0 0 -1.75,-0.25 z"
             id="path24" /></g><g
           id="path9"
           style="fill:#ffffff;fill-opacity:1;stroke:#333333;stroke-width:0.422457;stroke-dasharray:none;stroke-opacity:0.76"><path
             style="color:#000000;fill:#ffffff;fill-opacity:1;stroke:#333333;stroke-width:0.422457;stroke-linecap:round;stroke-linejoin:round;stroke-miterlimit:0.2;stroke-dasharray:none;stroke-opacity:0.76"
             d="M 92.714143,97.929423 87.701646,83.791616"
             id="path25" /><path
             style="color:#000000;fill:#ffffff;fill-opacity:1;stroke:#333333;stroke-width:0.422457;stroke-linecap:round;stroke-linejoin:round;stroke-miterlimit:0.2;stroke-dasharray:none;stroke-opacity:0.76"
             d="m 87.283203,82.613281 a 1.25,1.25 0 0 0 -0.759766,1.595703 l 5.011719,14.138672 a 1.25,1.25 0 0 0 1.597656,0.759766 1.25,1.25 0 0 0 0.759766,-1.595703 L 88.878906,83.373047 a 1.25,1.25 0 0 0 -1.595703,-0.759766 z"
             id="path26" /></g><g
           id="path10"
           style="fill:#ffffff;fill-opacity:1;stroke:#333333;stroke-width:0.422457;stroke-dasharray:none;stroke-opacity:0.76"><path
             style="color:#000000;fill:#ffffff;fill-opacity:1;stroke:#333333;stroke-width:0.422457;stroke-linecap:round;stroke-linejoin:round;stroke-miterlimit:0.2;stroke-dasharray:none;stroke-opacity:0.76"
             d="M 103.63881,97.672372 V 82.634886"
             id="path27" /><path
             style="color:#000000;fill:#ffffff;fill-opacity:1;stroke:#333333;stroke-width:0.422457;stroke-linecap:round;stroke-linejoin:round;stroke-miterlimit:0.2;stroke-dasharray:none;stroke-opacity:0.76"
             d="m 103.63867,81.384766 a 1.25,1.25 0 0 0 -1.25,1.25 v 15.037109 a 1.25,1.25 0 0 0 1.25,1.25 1.25,1.25 0 0 0 1.25,-1.25 V 82.634766 a 1.25,1.25 0 0 0 -1.25,-1.25 z"
             id="path28" /></g><g
           id="path11"
           style="fill:#ffffff;fill-opacity:1;stroke:#333333;stroke-width:0.422457;stroke-dasharray:none;stroke-opacity:0.76"><path
             style="color:#000000;fill:#ffffff;fill-opacity:1;stroke:#333333;stroke-width:0.422457;stroke-linecap:round;stroke-linejoin:round;stroke-miterlimit:0.2;stroke-dasharray:none;stroke-opacity:0.76"
             d="m 115.01332,97.736637 4.43414,-13.045343"
             id="path29" /><path
             style="color:#000000;fill:#ffffff;fill-opacity:1;stroke:#333333;stroke-width:0.422457;stroke-linecap:round;stroke-linejoin:round;stroke-miterlimit:0.2;stroke-dasharray:none;stroke-opacity:0.76"
             d="m 119.84961,83.507812 a 1.25,1.25 0 0 0 -1.58594,0.78125 l -4.43359,13.044922 a 1.25,1.25 0 0 0 0.78125,1.585938 1.25,1.25 0 0 0 1.58594,-0.78125 l 4.43359,-13.044922 a 1.25,1.25 0 0 0 -0.78125,-1.585938 z"
             id="path30" /></g><g
           id="path12"
           style="fill:#ffffff;fill-opacity:1;stroke:#333333;stroke-width:0.422457;stroke-dasharray:none;stroke-opacity:0.76"><path
             style="color:#000000;fill:#ffffff;fill-opacity:1;stroke:#333333;stroke-width:0.422457;stroke-linecap:round;stroke-linejoin:round;stroke-miterlimit:0.2;stroke-dasharray:none;stroke-opacity:0.76"
             d="m 123.36748,103.8416 11.5673,-15.358802"
             id="path31" /><path
             style="color:#000000;fill:#ffffff;fill-opacity:1;stroke:#333333;stroke-width:0.422457;stroke-linecap:round;stroke-linejoin:round;stroke-miterlimit:0.2;stroke-dasharray:none;stroke-opacity:0.76"
             d="m 134.75977,87.244141 a 1.25,1.25 0 0 0 -0.82422,0.486328 l -11.56641,15.359371 a 1.25,1.25 0 0 0 0.24609,1.75 1.25,1.25 0 0 0 1.75,-0.24609 l 11.56836,-15.359375 a 1.25,1.25 0 0 0 -0.24609,-1.75 1.25,1.25 0 0 0 -0.92773,-0.240234 z"
             id="path32" /></g><g
           id="path13"
           style="fill:#ffffff;fill-opacity:1;stroke:#333333;stroke-width:0.422457;stroke-dasharray:none;stroke-opacity:0.76"><path
             style="color:#000000;fill:#ffffff;fill-opacity:1;stroke:#333333;stroke-width:0.422457;stroke-linecap:round;stroke-linejoin:round;stroke-miterlimit:0.2;stroke-dasharray:none;stroke-opacity:0.76"
             d="M 130.37212,110.71771 148.17291,96.90122"
             id="path33" /><path
             style="color:#000000;fill:#ffffff;fill-opacity:1;stroke:#333333;stroke-width:0.40024;stroke-linecap:round;stroke-linejoin:round;stroke-miterlimit:0.2;stroke-dasharray:none;stroke-opacity:0.76"
             d="m 148.40683,95.648563 a 1.1748904,1.1937114 0 0 0 -0.86831,0.242472 l -16.73118,13.194245 a 1.1748904,1.1937114 0 0 0 -0.20744,1.67493 1.1748904,1.1937114 0 0 0 1.64852,0.21076 l 16.73117,-13.194244 a 1.1748904,1.1937114 0 0 0 0.20745,-1.674926 1.1748904,1.1937114 0 0 0 -0.78021,-0.453237 z"
             id="path34" /></g><g
           id="path14"
           style="fill:#ffffff;fill-opacity:1;stroke:#333333;stroke-width:0.422457;stroke-dasharray:none;stroke-opacity:0.76"><path
             style="color:#000000;fill:#ffffff;fill-opacity:1;stroke:#333333;stroke-width:0.422457;stroke-linecap:round;stroke-linejoin:round;stroke-miterlimit:0.2;stroke-dasharray:none;stroke-opacity:0.76"
             d="m 140.52564,117.4653 11.82435,-5.91217"
             id="path35" /><path
             style="color:#000000;fill:#ffffff;fill-opacity:1;stroke:#333333;stroke-width:0.422457;stroke-linecap:round;stroke-linejoin:round;stroke-miterlimit:0.2;stroke-dasharray:none;stroke-opacity:0.76"
             d="m 151.79102,110.43555 -11.82422,5.91211 a 1.25,1.25 0 0 0 -0.5586,1.67578 1.25,1.25 0 0 0 1.67578,0.56054 l 11.82422,-5.9121 a 1.25,1.25 0 0 0 0.56055,-1.67774 1.25,1.25 0 0 0 -1.67773,-0.55859 z"
             id="path36" /></g><g
           id="path15"
           style="fill:#ffffff;fill-opacity:1;stroke:#333333;stroke-width:0.422457;stroke-dasharray:none;stroke-opacity:0.76"><path
             style="color:#000000;fill:#ffffff;fill-opacity:1;stroke:#333333;stroke-width:0.422457;stroke-linecap:round;stroke-linejoin:round;stroke-miterlimit:0.2;stroke-dasharray:none;stroke-opacity:0.76"
             d="m 152.73557,128.32571 1.22099,-0.12852"
             id="path37" /><path
             style="color:#000000;fill:#ffffff;fill-opacity:1;stroke:#333333;stroke-width:0.422457;stroke-linecap:round;stroke-linejoin:round;stroke-miterlimit:0.2;stroke-dasharray:none;stroke-opacity:0.76"
             d="m 153.82617,126.95313 -1.2207,0.1289 a 1.25,1.25 0 0 0 -1.11328,1.375 1.25,1.25 0 0 0 1.375,1.11133 l 1.2207,-0.12891 a 1.25,1.25 0 0 0 1.11133,-1.37304 1.25,1.25 0 0 0 -1.37305,-1.11328 z"
             id="path38" /></g></g><path
         style="fill:#333333;fill-opacity:0.693333;stroke:none;stroke-width:2.86193;stroke-linecap:round;stroke-linejoin:round;stroke-miterlimit:0.2;stroke-dasharray:none;stroke-opacity:1"
         d="m 103.18552,342.68395 40.87851,-20.20853 25.15994,6.3901 c -3.44067,15.19914 -23.0912,21.58528 -49.98237,21.96893 z"
         id="path16"
         sodipodi:nodetypes="ccccc" /><rect
         style="fill:none;fill-opacity:1;stroke:#fdfeeb;stroke-width:7.83217;stroke-linecap:round;stroke-linejoin:round;stroke-miterlimit:0.2;stroke-dasharray:none;stroke-opacity:1"
         id="rect1-6"
         width="132.16783"
         height="132.16783"
         x="217.11108"
         y="-170.05592"
         rx="29.370632"
         ry="29.37063"
         transform="rotate(90)" /></g></g></svg>
